#define object_width 16
#define object_height 16
static unsigned char object_bits[] = {
   0x00, 0x00, 0x80, 0x00, 0x80, 0x01, 0x40, 0x02, 0xc0, 0x02, 0x20, 0x05,
   0x20, 0x04, 0x50, 0x09, 0x90, 0x0c, 0x08, 0x10, 0xf8, 0x1e, 0xc0, 0x03,
   0x40, 0x0b, 0x50, 0x06, 0xa0, 0x05, 0x00, 0x00 };
