#define reference_width 16
#define reference_height 16
static unsigned char reference_bits[] = {
   0x00, 0x00, 0x00, 0x00, 0x0c, 0x00, 0x14, 0x00, 0x24, 0x00, 0x24, 0x03,
   0x24, 0x05, 0xe4, 0x09, 0x04, 0x10, 0x04, 0x20, 0x04, 0x10, 0xf8, 0x09,
   0x00, 0x05, 0x00, 0x03, 0x00, 0x00, 0x00, 0x00 };
