#define dimension_width 16
#define dimension_height 16
static unsigned char dimension_bits[] = {
   0x00, 0x00, 0xe0, 0x7f, 0x10, 0x40, 0xfc, 0xff, 0xaa, 0xaa, 0xad, 0x5a,
   0xff, 0x6f, 0x02, 0x58, 0xfe, 0x4f, 0x02, 0x48, 0x62, 0x48, 0xa2, 0x48,
   0x62, 0x28, 0x02, 0x18, 0xfe, 0x0f, 0x00, 0x00 };
