#define zone_width 16
#define zone_height 16
static unsigned char zone_bits[] = {
   0x00, 0x00, 0x04, 0x20, 0x04, 0x20, 0xff, 0xff, 0x04, 0x20, 0xb4, 0x20,
   0x34, 0x02, 0x44, 0x25, 0x14, 0x02, 0x04, 0x22, 0xf4, 0x0f, 0x04, 0x20,
   0x5f, 0xf5, 0x04, 0x20, 0x04, 0x20, 0x00, 0x00 };
